<svg width="320" height="80" viewBox="0 0 320 80" fill="none" xmlns="http://www.w3.org/2000/svg">
<path d="M182.321 55.624H184.832V58.3662H182.321V77.0723C182.325 77.6724 182.092 78.2497 181.671 78.6777C181.25 79.1059 180.676 79.3501 180.076 79.3564H171.757V76.6084H178.907V58.3662H168.419V55.624H178.907V53.1328H182.321V55.624ZM82.1797 59.8857C82.3588 59.8875 82.5364 59.9248 82.7012 59.9951C82.8657 60.0654 83.0146 60.1679 83.1396 60.2959C83.2648 60.424 83.3633 60.5759 83.4297 60.7422C83.4961 60.9085 83.5298 61.0865 83.5273 61.2656V76.6074H111.25V79.3555H78.3037V76.6074H80.1113V62.8115H78.3018V59.8857H82.1797ZM118.832 59.8857C119.011 59.8875 119.188 59.9249 119.353 59.9951C119.517 60.0654 119.667 60.1678 119.792 60.2959C119.917 60.424 120.016 60.5758 120.082 60.7422C120.148 60.9085 120.182 61.0865 120.18 61.2656V76.6074H147.901V79.3555H114.956V76.6074H116.764V62.8115H114.954V59.8857H118.832ZM166.536 53.8887V62.7012H163.122V56.6318H155.665V64.3887H178.906V67.3135H155.665V76.6074H163.122V69.0039H166.529V77.9844C166.532 78.3447 166.391 78.6914 166.139 78.9482C165.886 79.2052 165.541 79.3519 165.181 79.3555H152.244V53.8887H166.536ZM194.964 66.7832H214.009L208.585 61.083H212.899L218.321 66.7832H220.02V69.5264H206.192V76.6123H220.057V79.3545H188.988V76.6123H202.778V69.5264H188.953V66.7832H190.651L196.071 61.083H200.384L194.964 66.7832ZM4.125 36.9473C4.86024 36.9141 5.5916 37.0695 6.25 37.3984L29.4424 48.9941C30.1596 49.3526 30.7629 49.9039 31.1846 50.5859C31.6062 51.2681 31.8301 52.0545 31.8301 52.8564V75.0312C31.8302 75.7673 31.6415 76.4909 31.2832 77.1338C30.9248 77.7768 30.4085 78.318 29.7822 78.7051C29.156 79.0921 28.4405 79.3127 27.7051 79.3457C26.9698 79.3786 26.2383 79.2229 25.5801 78.8936L2.3877 67.2969C1.67036 66.9383 1.06717 66.3872 0.645508 65.7051C0.223838 65.0228 -6.73245e-05 64.2366 0 63.4346V41.2607C0.000259323 40.5249 0.18848 39.8009 0.546875 39.1582C0.905392 38.5154 1.42277 37.9748 2.04883 37.5879C2.67494 37.2009 3.38971 36.9805 4.125 36.9473ZM95.4014 55.624H102.749V53.1328H106.163V55.624H110.432V58.3662H106.163V64.3896H110.432V67.1309H106.163V75.1191H102.749V67.1309H95.1875L95.0977 67.4688C94.5686 69.5002 93.3503 71.2845 91.6514 72.5176L88.1113 75.0674L86.1387 72.2334L89.6787 69.6855C90.3592 69.1904 90.9195 68.5477 91.3164 67.8057L91.6758 67.1309H86.5586V64.3896H91.9873V58.3662H86.5586V55.624H91.9873V53.1328H95.4014V55.624ZM126.522 55.624H133.351V53.1328H136.764V55.624H147.006V58.3662H136.764V62.7666H147.006V65.6963H137.171L137.609 66.3965C138.137 67.2465 138.892 67.9321 139.788 68.377L147.078 71.9668L145.591 75.0908L138.286 71.5029C137.164 70.9497 136.174 70.1604 135.386 69.1895L135.049 68.7715L134.711 69.1895C133.922 70.1575 132.934 70.9445 131.813 71.4961L124.523 75.0908L123.038 71.96L130.328 68.3701C131.223 67.9242 131.977 67.2388 132.505 66.3896L132.942 65.6895H122.928V62.7666H133.353V58.3662H124.457C124.097 58.363 123.752 58.2169 123.499 57.96C123.246 57.7029 123.106 57.3557 123.108 56.9951V53.1328H126.522V55.624ZM95.4014 64.3896H102.749V58.3662H95.4014V64.3896ZM206.195 55.624H219.347C219.707 55.6276 220.051 55.7745 220.304 56.0312C220.557 56.2882 220.698 56.6347 220.695 56.9951V61.085H217.288V58.3662H191.685V61.085H188.271V56.9951C188.268 56.6344 188.409 56.2872 188.662 56.0303C188.915 55.7734 189.26 55.6271 189.621 55.624H202.781V53.1328H206.195V55.624ZM83.5273 57.3877H80.1123V53.1309H83.5273V57.3877ZM120.181 57.3877H116.766V53.1309H120.181V57.3877ZM49.5332 34.6895C50.0852 34.7143 50.6217 34.8795 51.0918 35.1699C51.5619 35.4605 51.9506 35.8669 52.2197 36.3496C52.4886 36.8321 52.6298 37.3754 52.6299 37.9277V46.8369C52.6299 47.6389 52.406 48.4252 51.9844 49.1074C51.5627 49.7895 50.9595 50.3407 50.2422 50.6992L40.4971 55.5723C40.0025 55.8195 39.4527 55.9362 38.9004 55.9111C38.3479 55.8861 37.811 55.7198 37.3408 55.4287C36.8706 55.1376 36.4826 54.7305 36.2139 54.2471C35.9452 53.7638 35.8048 53.2199 35.8057 52.667V43.7627C35.8057 42.961 36.0287 42.1752 36.4502 41.4932C36.8718 40.811 37.475 40.259 38.1924 39.9004L47.9375 35.0283C48.4318 34.7812 48.9811 34.6646 49.5332 34.6895ZM163.518 15.2695C163.945 15.2694 164.364 15.39 164.726 15.6172C165.088 15.8445 165.378 16.1696 165.563 16.5547L178.172 42.6836H172.045L172.044 42.6816H161.179V37.6797H169.631L161.181 20.166L150.314 42.6836L144.189 42.6875L156.797 16.5547C156.982 16.1698 157.272 15.8445 157.634 15.6172C157.996 15.3899 158.415 15.2695 158.842 15.2695H163.518ZM261.942 31.1689L272.614 15.2695H277.506V42.6855H271.93V24.875L263.743 37.0762C263.619 37.2618 263.45 37.4143 263.253 37.5195C263.056 37.6248 262.835 37.6797 262.611 37.6797H261.281C261.057 37.6799 260.837 37.6247 260.64 37.5195C260.442 37.4143 260.273 37.2621 260.148 37.0762L251.956 24.8682V42.6855H246.381V15.2695H251.27L261.942 31.1689ZM109.421 20.2734H83.8799V26.4746H109.421V40.8486C109.421 41.8618 108.654 42.6844 107.71 42.6846H78.3047V37.6807H103.847V31.4795H78.3047V17.1055C78.3047 16.0922 79.0715 15.2696 80.0156 15.2695H109.421V20.2734ZM142.665 15.2686C143.607 15.2687 144.376 16.0914 144.376 17.1045V29.6416C144.376 30.6548 143.607 31.4793 142.665 31.4795H118.833V42.6846H113.258V26.4736H138.801V20.2725H113.258V15.2686H142.665ZM209.458 20.2725H185.776V37.6807H209.463V42.6846H181.918C180.974 42.6846 180.204 41.8601 180.204 40.8486V17.1045C180.204 16.0913 180.974 15.2686 181.918 15.2686H209.458V20.2725ZM320 20.2725H308.159V42.6846H302.584V20.2725H290.741V15.2686H320V20.2725ZM242.552 31.4785H218.868V37.6797H242.552V42.6836H215.004C214.06 42.6834 213.293 41.8591 213.293 40.8477V26.4727H242.552V31.4785ZM286.908 42.6826H281.333V15.2666H286.908V42.6826ZM58.0771 0.00390625C58.7279 0.0337484 59.3607 0.229069 59.915 0.571289C60.4693 0.913459 60.9268 1.39166 61.2451 1.95996C61.5634 2.52838 61.7323 3.16884 61.7344 3.82031V20.8877C61.7344 21.6896 61.5105 22.476 61.0889 23.1582C60.6672 23.8403 60.064 24.3915 59.3467 24.75L41.3506 33.752C40.7664 34.0438 40.1172 34.1808 39.4648 34.1514C38.8124 34.1219 38.1776 33.9264 37.6221 33.583C37.0667 33.2396 36.608 32.7597 36.29 32.1895C35.9721 31.6192 35.8058 30.9771 35.8057 30.3242V13.2568C35.8056 12.4548 36.0286 11.6685 36.4502 10.9863C36.8718 10.3042 37.4751 9.75312 38.1924 9.39453L56.1953 0.401367C56.7786 0.111337 57.4264 -0.0259037 58.0771 0.00390625ZM242.552 20.2725H213.293V17.1045C213.293 16.0914 214.06 15.2688 215.004 15.2686H242.552V20.2725Z" fill="black"/>
</svg>
