<svg width="24" height="24" viewBox="0 0 24 24" fill="none" xmlns="http://www.w3.org/2000/svg">
<path d="M19.0592 7.84792L15.8441 4.63278C15.7335 4.53143 15.6044 4.43928 15.4662 4.38401C15.328 4.32873 15.1806 4.30078 15.024 4.30078C14.8766 4.30078 14.7294 4.32873 14.5912 4.38401C14.4438 4.43928 14.3239 4.53143 14.2134 4.63278L5.34124 13.5049C5.23068 13.6155 5.14751 13.7441 5.08302 13.8823C5.02774 14.0205 5.00024 14.1679 5.00024 14.3245V17.5401C5.00024 17.8442 5.12012 18.1389 5.34124 18.3508C5.55314 18.5719 5.84785 18.6918 6.15188 18.6918H18.2486C18.396 18.6918 18.5434 18.6271 18.6539 18.5258C18.7553 18.4152 18.8199 18.2681 18.8199 18.1115C18.8199 17.9641 18.7553 17.8167 18.6539 17.7061C18.5434 17.6048 18.396 17.5401 18.2486 17.5401H10.9978L19.0592 9.47866C19.1698 9.36811 19.2527 9.24819 19.308 9.10078C19.3633 8.96258 19.4002 8.81543 19.4002 8.66802C19.4002 8.51139 19.3633 8.364 19.308 8.2258C19.2527 8.08761 19.1698 7.95848 19.0592 7.84792ZM9.36748 17.5401H6.15188V14.3245L12.4904 7.98603L15.706 11.2016L9.36748 17.5401ZM16.5166 10.391L13.3011 7.17538L15.024 5.44342L18.2486 8.66802L16.5166 10.391Z" fill="black"/>
</svg>
