<svg width="24" height="24" viewBox="0 0 24 24" fill="none" xmlns="http://www.w3.org/2000/svg">
<path d="M12.3268 3.625C13.1555 3.625 13.9223 4.06437 14.3414 4.77929L15.1627 6.17968L15.2164 6.24902C15.2776 6.30942 15.3606 6.34495 15.4489 6.3457L17.0641 6.35839L17.2184 6.36523C17.9866 6.42227 18.6815 6.85584 19.069 7.52929L19.3971 8.10058L19.4703 8.23632C19.7855 8.87878 19.7883 9.63143 19.4782 10.2764L19.4069 10.4121L18.6041 11.834C18.5467 11.9361 18.5466 12.0611 18.6041 12.1631L19.4069 13.584L19.4782 13.7207C19.7882 14.3657 19.7856 15.1183 19.4703 15.7608L19.3971 15.8965L19.069 16.4678C18.6815 17.1411 17.9865 17.5748 17.2184 17.6319L17.0641 17.6377L15.4489 17.6514C15.3606 17.6521 15.2777 17.6876 15.2164 17.7481L15.1627 17.8164L14.3414 19.2178C13.9223 19.9326 13.1554 20.3721 12.3268 20.3721H11.6803C10.9036 20.3719 10.1812 19.9858 9.74871 19.3487L9.66668 19.2178L8.84539 17.8164C8.80067 17.7402 8.72823 17.686 8.6452 17.6631L8.55926 17.6514L6.94402 17.6377C6.16703 17.6314 5.44754 17.2397 5.0202 16.5987L4.93914 16.4678L4.61102 15.8965C4.1997 15.1815 4.19575 14.3023 4.60125 13.584L5.40301 12.1631L5.43621 12.083C5.45064 12.0277 5.45059 11.9694 5.43621 11.9141L5.40301 11.834L4.60125 10.4121C4.1959 9.69387 4.19977 8.81547 4.61102 8.10058L4.93914 7.52929L5.0202 7.39843C5.44752 6.75731 6.16695 6.36473 6.94402 6.35839L8.55926 6.3457L8.6452 6.33398C8.72833 6.31112 8.80066 6.25599 8.84539 6.17968L9.66668 4.77929L9.74871 4.64843C10.1812 4.01114 10.9036 3.62515 11.6803 3.625H12.3268ZM11.6803 4.95507C11.3685 4.95522 11.0771 5.09975 10.8884 5.34179L10.8141 5.45214L9.99285 6.85253C9.73348 7.29506 9.28703 7.5893 8.7868 7.65917L8.57 7.67578L6.95477 7.68847C6.64283 7.69102 6.3526 7.83838 6.1657 8.08203L6.09148 8.19238L5.76336 8.76367C5.58642 9.07137 5.58495 9.44968 5.75945 9.75878L6.56121 11.1797L6.65594 11.375C6.81724 11.7744 6.81709 12.2216 6.65594 12.6211L6.56121 12.8174L5.75945 14.2383C5.58498 14.5474 5.58635 14.9257 5.76336 15.2334L6.09148 15.8037L6.1657 15.9141C6.35259 16.158 6.64265 16.3051 6.95477 16.3076L8.57 16.3213L8.7868 16.3369C9.28707 16.4068 9.73346 16.702 9.99285 17.1446L10.8141 18.5449L10.8884 18.6543C11.0771 18.8966 11.3684 19.0419 11.6803 19.042H12.3268C12.6834 19.042 13.0136 18.8526 13.194 18.5449L14.0153 17.1446L14.1373 16.9639C14.4473 16.5652 14.9253 16.3255 15.4381 16.3213L17.0533 16.3076L17.1852 16.2979C17.4895 16.2551 17.761 16.0744 17.9166 15.8037L18.2448 15.2334L18.3024 15.1153C18.4024 14.8729 18.404 14.6007 18.3063 14.3574L18.2487 14.2383L17.4459 12.8174C17.1592 12.3094 17.1592 11.6877 17.4459 11.1797L18.2487 9.75878L18.3063 9.63964C18.4041 9.39643 18.4023 9.12421 18.3024 8.88183L18.2448 8.76367L17.9166 8.19238C17.7609 7.92175 17.4896 7.74101 17.1852 7.69824L17.0533 7.68847L15.4381 7.67578C14.9253 7.67159 14.4473 7.43178 14.1373 7.0332L14.0153 6.85253L13.194 5.45214C13.0136 5.14441 12.6835 4.95507 12.3268 4.95507H11.6803ZM13.5895 11.998C13.5893 11.123 12.8796 10.4133 12.0045 10.4131C11.1293 10.4131 10.4188 11.1228 10.4186 11.998C10.4186 12.8734 11.1292 13.583 12.0045 13.583C12.8797 13.5828 13.5895 12.8733 13.5895 11.998ZM14.9186 11.998C14.9186 13.6078 13.6142 14.9129 12.0045 14.9131C10.3947 14.9131 9.08953 13.608 9.08953 11.998C9.08971 10.3883 10.3948 9.083 12.0045 9.083C13.6141 9.08326 14.9184 10.3884 14.9186 11.998Z" fill="#0D0D0D"/>
</svg>
