<svg width="24" height="24" viewBox="0 0 24 24" fill="none" xmlns="http://www.w3.org/2000/svg">
<path d="M20.3949 12.7044C20.2526 14.3072 19.671 15.8323 18.6883 17.0991C17.7186 18.3658 16.3995 19.3354 14.8996 19.8912C13.3868 20.4341 11.7574 20.5501 10.1929 20.2011C8.62835 19.8521 7.19319 19.0636 6.06828 17.9391C4.93043 16.8016 4.142 15.3673 3.79289 13.8032C3.45671 12.2392 3.55982 10.6104 4.10289 9.09811C4.65888 7.59872 5.62883 6.28007 6.89598 5.31064C8.17605 4.32829 9.68874 3.74686 11.2921 3.60468C11.3826 3.59175 11.4601 3.6047 11.5377 3.63055C11.6282 3.6564 11.693 3.69531 11.7706 3.75994C11.8353 3.81164 11.8872 3.87614 11.9259 3.9537C11.9647 4.03125 11.9903 4.10873 11.9903 4.19921C12.0033 4.27676 11.9903 4.36717 11.9645 4.44472C11.9386 4.5352 11.8997 4.59973 11.835 4.66436C11.7833 4.72899 11.7188 4.79409 11.6412 4.83287C11.5636 4.87165 11.4861 4.88432 11.3956 4.89725C10.0509 5.01358 8.75773 5.51751 7.68453 6.33183C6.59841 7.15907 5.78372 8.27099 5.31823 9.55063C4.85275 10.8303 4.76262 12.2005 5.06001 13.5319C5.34447 14.8503 6.01681 16.0649 6.97363 17.0214C7.93046 17.9779 9.1455 18.65 10.4644 18.9344C11.7962 19.2317 13.1798 19.1416 14.4469 18.6763C15.727 18.2109 16.8393 17.3962 17.6668 16.3234C18.4814 15.2376 18.9855 13.9452 19.1019 12.6009C19.1148 12.4329 19.1926 12.2651 19.3348 12.1617C19.4641 12.0453 19.632 11.9935 19.8001 12.0064C19.9682 12.0193 20.1361 12.0971 20.2396 12.2393C20.3559 12.3685 20.4078 12.5364 20.3949 12.7044ZM11.3438 7.48239V12.0064C11.3438 12.1744 11.4084 12.3426 11.5377 12.4589C11.654 12.5882 11.8222 12.6527 11.9903 12.6527H16.5159C16.6839 12.6527 16.8522 12.5882 16.9685 12.4589C17.0978 12.3426 17.1624 12.1744 17.1624 12.0064C17.1624 11.8384 17.0978 11.6702 16.9685 11.5539C16.8522 11.4246 16.6839 11.3601 16.5159 11.3601H12.6368V7.48239C12.6368 7.31436 12.5723 7.1462 12.443 7.02987C12.3266 6.90061 12.1584 6.83611 11.9903 6.83611C11.8222 6.83611 11.654 6.90061 11.5377 7.02987C11.4084 7.1462 11.3438 7.31436 11.3438 7.48239ZM14.5763 5.54353C14.7703 5.54353 14.9512 5.49198 15.1193 5.37565C15.2745 5.27225 15.4038 5.11704 15.4684 4.949C15.546 4.76804 15.5723 4.57423 15.5335 4.38035C15.4947 4.19939 15.4036 4.01858 15.2614 3.88932C15.1321 3.76006 14.9512 3.65608 14.7702 3.6173C14.5762 3.59145 14.3823 3.60475 14.2013 3.68231C14.0332 3.74693 13.878 3.87622 13.7745 4.03133C13.6582 4.19936 13.6066 4.38022 13.6066 4.5741C13.6066 4.83262 13.7103 5.07793 13.8913 5.25889C14.0724 5.43985 14.3177 5.54353 14.5763 5.54353ZM17.4856 7.48239C17.6796 7.48239 17.8605 7.43084 18.0286 7.31451C18.1837 7.2111 18.3131 7.05589 18.3777 6.88786C18.4553 6.7069 18.4815 6.51309 18.4427 6.3192C18.4039 6.13824 18.3129 5.95743 18.1706 5.82818C18.0413 5.69892 17.8605 5.59493 17.6794 5.55616C17.4855 5.53031 17.2916 5.54361 17.1106 5.62116C16.9425 5.68579 16.7872 5.81507 16.6838 5.97018C16.5674 6.13822 16.5159 6.31908 16.5159 6.51296C16.5159 6.77148 16.6196 7.01679 16.8006 7.19775C16.9816 7.37871 17.227 7.48239 17.4856 7.48239ZM19.4251 10.3907C19.6191 10.3907 19.8 10.3391 19.9681 10.2228C20.1232 10.1194 20.2526 9.96418 20.3172 9.79615C20.3948 9.61519 20.421 9.42138 20.3822 9.22749C20.3435 9.04653 20.2524 8.86572 20.1101 8.73646C19.9808 8.60721 19.8 8.50322 19.6189 8.46444C19.425 8.43859 19.2311 8.4519 19.0501 8.52945C18.882 8.59408 18.7267 8.72336 18.6233 8.87847C18.5069 9.0465 18.4554 9.22736 18.4554 9.42125C18.4554 9.67976 18.5591 9.92508 18.7401 10.106C18.9211 10.287 19.1665 10.3907 19.4251 10.3907Z" fill="black"/>
</svg>
