<svg width="24" height="24" viewBox="0 0 24 24" fill="none" xmlns="http://www.w3.org/2000/svg">
<path d="M20.1771 17.8305L17.7302 8.50984C17.6888 8.37074 17.5946 8.25333 17.4679 8.18268C17.3411 8.11202 17.1918 8.09372 17.0517 8.13167L15.033 8.63775V5.35105C15.033 5.20355 14.9744 5.0621 14.8701 4.95781C14.7658 4.85351 14.6243 4.79492 14.4769 4.79492H12.2524C12.1049 4.79492 11.9634 4.85351 11.8591 4.95781C11.7548 5.0621 11.6962 5.20355 11.6962 5.35105V7.01942H9.47173V5.90717C9.47173 5.75968 9.41314 5.61822 9.30885 5.51393C9.20456 5.40964 9.0631 5.35105 8.91561 5.35105H6.13498C5.98749 5.35105 5.84604 5.40964 5.74174 5.51393C5.63745 5.61822 5.57886 5.75968 5.57886 5.90717V18.6981C5.57886 18.8455 5.63745 18.987 5.74174 19.0913C5.84604 19.1956 5.98749 19.2542 6.13498 19.2542H14.4769C14.6243 19.2542 14.7658 19.1956 14.8701 19.0913C14.9744 18.987 15.033 18.8455 15.033 18.6981V12.2081L16.7459 18.7314C16.7774 18.8538 16.8497 18.9617 16.9507 19.0376C17.0518 19.1134 17.1757 19.1525 17.302 19.1485C17.35 19.1539 17.3985 19.1539 17.4466 19.1485L19.799 18.5312C19.9414 18.4942 20.0635 18.4022 20.1382 18.2754C20.1751 18.2079 20.1976 18.1336 20.2043 18.057C20.211 17.9804 20.2018 17.9033 20.1771 17.8305ZM8.35948 18.1419H6.69111V6.4633H8.35948V18.1419ZM11.6962 18.1419H9.47173V8.13167H11.6962V18.1419ZM13.9207 18.1419H12.8085V5.90717H13.9207V18.1419ZM17.6801 17.9084L15.5168 9.66658L16.7959 9.32734L18.9592 17.5858L17.6801 17.9084Z" fill="black"/>
</svg>
