<svg width="120" height="18" viewBox="0 0 120 18" fill="none" xmlns="http://www.w3.org/2000/svg">
<path d="M91.9998 6.55287C91.9998 4.95921 91.9998 4.16239 92.3099 3.55369C92.5827 3.01827 93.018 2.58296 93.5534 2.31015C94.1621 2 94.959 2 96.5526 2H111.447C113.041 2 113.837 2 114.446 2.31015C114.981 2.58296 115.417 3.01827 115.69 3.55369C116 4.16239 116 4.95921 116 6.55287V11.4471C116 13.0408 116 13.8376 115.69 14.4463C115.417 14.9817 114.981 15.417 114.446 15.6899C113.837 16 113.041 16 111.447 16H96.5526C94.959 16 94.1621 16 93.5534 15.6899C93.018 15.417 92.5827 14.9817 92.3099 14.4463C91.9998 13.8376 91.9998 13.0408 91.9998 11.4471V6.55287Z" fill="#B0E237"/>
<path d="M32.7537 4.21191C32.9028 4.21184 33.0492 4.25375 33.1755 4.33301C33.3019 4.41234 33.4037 4.52576 33.4685 4.66016L37.8708 13.7842H31.9373V12.0381H34.8894L31.9382 5.9209L28.1433 13.7842L26.0046 13.7852L30.407 4.66016C30.4717 4.52575 30.5736 4.41236 30.7 4.33301C30.8262 4.25375 30.9727 4.21188 31.1218 4.21191H32.7537ZM63.3962 4.21191L67.1228 9.7627L70.8494 4.21191H72.5574V13.7852H70.6101V7.56543L67.7517 11.8262C67.7082 11.891 67.6487 11.9437 67.5798 11.9805C67.511 12.0172 67.4342 12.0371 67.3562 12.0371H66.8923C66.8141 12.0372 66.7367 12.0172 66.6677 11.9805C66.5988 11.9437 66.5394 11.8911 66.4958 11.8262L63.6355 7.56348V13.7852H61.6892V4.21191H63.3962ZM13.865 5.95703H4.94702V8.12305H13.865V13.1416C13.865 13.4954 13.597 13.7832 13.2673 13.7832H2.99976V12.0361H11.9187V9.87012H2.99976V4.85059C3 4.49699 3.26788 4.20996 3.59741 4.20996H13.865V5.95703ZM25.4724 4.20996C25.8013 4.21007 26.0698 4.49706 26.0701 4.85059V9.22852C26.0701 9.58227 25.8014 9.87001 25.4724 9.87012H17.1511V13.7832H15.2039V8.12305H24.1228V5.95703H15.2039V4.20996H25.4724ZM48.7966 5.95703H40.5271V12.0361H48.7976V13.7832H39.1794C38.8498 13.7831 38.5818 13.4948 38.5818 13.1416V4.85059C38.582 4.49705 38.85 4.21006 39.1794 4.20996H48.7966V5.95703ZM60.3513 9.87109H52.0818V12.0361H60.3513V13.7832H50.7322C50.4026 13.7831 50.1346 13.4957 50.1345 13.1426V8.12305H60.3513V9.87109ZM75.8406 13.7832H73.8933V4.20996H75.8406V13.7832ZM87.3962 5.95703H83.2615V13.7832H81.3142V5.95703H77.1794V4.20996H87.3962V5.95703ZM60.3513 5.95703H50.1345V4.85059C50.1348 4.49703 50.4027 4.21003 50.7322 4.20996H60.3513V5.95703Z" fill="black"/>
<path d="M109.381 13.8H107.538V4.19995H109.381V13.8Z" fill="black"/>
<path d="M97.4998 13.8002L101.099 4.2002H103.004L106.603 13.8002H104.635L102.083 6.67802H102.008L99.4549 13.8002H97.4998ZM104.125 9.60409L104.586 11.3348H99.6044L100.04 9.60409H104.125Z" fill="black"/>
</svg>
